<svg width="49" height="49" fill="none" xmlns="http://www.w3.org/2000/svg">
  <path d="M17.17 41.96l6.49 6.5H34.2a2.32 2.32 0 002.31-2.33V21.8L17.17 41.15a.56.56 0 000 .8z" fill="#FFFFFF"/>
  <path d="M.64 14.9v10.54l6.5 6.49c.22.23.58.23.8 0L27.3 12.57H2.96A2.33 2.33 0 00.64 14.9z" fill="#FFFFFF"/>
  <path d="M25 3.1L9.38 27c-.53.82-.42 1.9.26 2.58l10.01 10c.69.69 1.77.8 2.57.27l23.9-15.64a5.4 5.4 0 002.44-4.51V3.03c0-1.3-1.07-2.37-2.38-2.37H29.53C27.7.66 26 1.58 25 3.1z" fill="#FFFFFF"/>
  <path d="M4.16 45.16v-8.44H.64V48.5h11.97v-3.34H4.16z" fill="#FFFFFF"/>
  <path d="M36.57 18.37a5.95 5.95 0 100-11.9 5.95 5.95 0 000 11.9z" fill="#000000"/>
  <path d="M25.92 20.39L13.19 33.12l2.93 2.93 12.73-12.72-2.93-2.94z" fill="#000000"/>
  <path d="M13.59 38.59l2.53-2.53-2.94-2.94-2.53 2.53 2.94 2.94z" fill="#000000"/>
</svg>