<svg xmlns="http://www.w3.org/2000/svg" width="24" height="24"><path fill="#fff" d="M13.193 11.961c1.824-.242 3.818-.972 3.818-3.181C17.011 5.812 12.87 6 10.88 6H10v12h.88c3.578 0 7.153-.146 7.153-2.795 0-2.494-2.375-3.099-4.84-3.244zM12 8.019c1.625 0 2.911.09 2.911 1.016 0 .958-1.229 1.024-2.911 1.024v-2.04zm1.896 7.969H12v-2.065h1.938c2.265 0 2.458 2.065-.042 2.065zm5.793-5.045a4.57 4.57 0 0 0 .91-4.097C20.16 5.199 19.117 3.229 15 2.831V0H7v3H3v5h2.744C5.925 8 6 8 6 8.291v7.139c0 .269-.119.57-.279.57H3.795L3 21h4v3h8v-2.75c4.629-.287 7-2.604 7-6.32 0-1.695-.84-3.107-2.311-3.987zM13.641 19H13v3h-1v-3h-2v3H9v-3H5.21l.125-1h.386C7.021 18 8 16.895 8 15.43V8.291C8 6.942 7.072 6 5.744 6H5V5h4V2h1v3h2V2h1v3h.606c6.027.203 6.235 4.349 3.815 6.5 1.141.516 2.579 1.334 2.579 3.43 0 3.785-3.984 4.07-6.359 4.07z"/></svg>
