<svg fill="#FFF" xmlns="http://www.w3.org/2000/svg" viewBox="0 0 52 40">
      <path d="M12.41 37.6h20.21a12.86 12.86 0 0 0 8.89-3.68h-38a12.44 12.44 0 0 0 8.9 3.68zM49.74 25.52l3.41-6.29c.6-1 .27-1.57-.92-1.57h-3.79a2.16 2.16 0 0 0-2.22 1l-2 2.71a12.58 12.58 0 0 0-11.65-8h-1.69l-.43-2.22a3 3 0 0 0-3.2-2.44H25V4.17A4 4 0 0 0 20.86 0H16a.77.77 0 0 0-.81.49A6.88 6.88 0 0 0 15 2.06a4.79 4.79 0 0 0 .22 1.57c.11.33.33.49.81.49h3.31a1 1 0 0 1 1.19 1.19v3.41h-2.76a2.94 2.94 0 0 0-3.2 2.44l-.43 2.22h-1.68A12.4 12.4 0 0 0 0 25.52a12.18 12.18 0 0 0 2.11 6.72H43a19 19 0 0 0 1.35-2.55l2 2.71a2.2 2.2 0 0 0 2.22 1h3.79c1.14 0 1.46-.65.92-1.57zm-37.55 0a2.89 2.89 0 0 1-2.87-2.87 2.94 2.94 0 0 1 2.87-2.93 2.94 2.94 0 0 1 2.87 2.93 2.86 2.86 0 0 1-2.87 2.87zm10.29 0a2.89 2.89 0 0 1-2.87-2.87 2.94 2.94 0 0 1 2.87-2.93 3 3 0 0 1 2.93 2.93 2.9 2.9 0 0 1-2.92 2.87zm10.29 0a2.89 2.89 0 0 1-2.87-2.87 2.87 2.87 0 1 1 5.74 0 2.86 2.86 0 0 1-2.86 2.87z" class="cls-2"/>
</svg>