<svg fill="none" viewBox="0 0 54 54" xmlns="http://www.w3.org/2000/svg"><path clip-rule="evenodd" d="M30 15v-3h-5a1 1 0 01-1-1V4a1 1 0 011-1h7a1 1 0 011 1v11h15a3 3 0 013 3v12h2a1 1 0 011 1v10a1 1 0 01-1 1h-2v6a3 3 0 01-3 3H6a3 3 0 01-3-3v-6H1a1 1 0 01-1-1V31a1 1 0 011-1h2V18a3 3 0 013-3zm6.854 23.643l6.29-6.289a1.21 1.21 0 000-1.71l-1.29-1.29a1.21 1.21 0 00-1.71 0L35.998 33.5l-1.645-1.645a1.21 1.21 0 00-1.71 0l-1.29 1.29a1.21 1.21 0 000 1.71l3.79 3.79a1.21 1.21 0 001.71 0zm-13.71-6.289l-6.29 6.29a1.21 1.21 0 01-1.71 0l-3.79-3.79a1.21 1.21 0 010-1.71l1.29-1.29a1.21 1.21 0 011.71 0L16 33.5l4.144-4.145a1.21 1.21 0 011.711 0l1.29 1.29a1.21 1.21 0 010 1.71z" fill="#fff" fill-rule="evenodd"/></svg>