<svg xmlns="http://www.w3.org/2000/svg" viewBox="0 0 10920.194 10920.194"><path d="M52.249868 4.9798679c-26.06 0-47.2700001 21.2200001-47.2700001 47.2700001 0 26.05 21.2200001 47.27 47.2700001 47.27 26.05 0 47.27-21.22 47.27-47.27 0-26.05-21.22-47.2700001-47.27-47.2700001zm-.07 4.2c1.680761.04353 3.02056 1.4232551 3.02 3.1100001 0 4.146665-6.22 4.146665-6.22 0-.000734-1.753376 1.447359-3.1607411 3.2-3.1100001zm-37.08 28.1400001c1.682359.04871 3.020705 1.426936 3.02 3.11 0 4.146665-6.22 4.146665-6.22 0-.000734-1.753376 1.447359-3.160741 3.2-3.11zm74.15.14c1.68236.04871 3.0207 1.426936 3.02 3.11 0 4.146665-6.22 4.146665-6.22 0-.00073-1.753376 1.44736-3.160741 3.2-3.11zm-9.72 41.27-6.57-1.41c-1.53-.33-3.04.65-3.37 2.18l-1.56 7.28c-10.151161 4.59844-21.802519 4.54367-31.91-.15l-1.56-7.28c-.33-1.53-1.83-2.51-3.36-2.18l-6.43 1.38c-8.398642-9.04912-11.752096-19.063124-10.57-30.76l6.7-2.98c1.43-.64 2.08-2.31 1.44-3.74l-2.4207-7.724535c1.298519-3.7317 1.2753-3.707102 3.8207-6.965465 5.614011-6.271594 13.13907-10.5174 21.41-12.08l4.79 5.02c1.08 1.13 2.87 1.18 4 .09l5.36-5.11c11.050222 2.069744 20.631432 8.893613 26.2 18.66l-3.67 8.28c-.63 1.43.02 3.11 1.44 3.75l7.06 3.13c1.4734 12.035465-3.01903 22.750172-10.8 30.61zm-50.38 2.38c1.682359.04871 3.020705 1.42694 3.02 3.11 0 4.14666-6.22 4.14666-6.22 0-.000734-1.75338 1.447359-3.160741 3.2-3.11zm46.05.14c1.682359.04871 3.020705 1.42694 3.02 3.11 0 4.14666-6.22 4.14666-6.22 0-.000734-1.75338 1.447359-3.160741 3.2-3.11z" style="display:inline;fill:#fff;fill-opacity:1"/><path stroke-width="3" stroke-linejoin="round" stroke-linecap="round" stroke="#000" fill-rule="evenodd" d="M96.879868 52.249868a44.63 44.63 0 0 1-44.63 44.63 44.63 44.63 0 0 1-44.6300001-44.63A44.63 44.63 0 0 1 52.249868 7.6198679a44.63 44.63 0 0 1 44.63 44.6300001zm-.84-4.31 6.960002 4.31-6.960002 4.31 5.980002 5.59-7.660002 2.87 4.78 6.65-8.09 1.32 3.4 7.46-8.19-.29 1.88 7.98-7.98-1.88.29 8.19-7.46-3.4-1.32 8.09-6.65-4.78-2.87 7.660002-5.59-5.980002-4.31 6.960002-4.31-6.960002-5.59 5.980002-2.87-7.660002-6.65 4.78-1.32-8.09-7.46 3.4.29-8.19-7.98 1.88 1.88-7.98-8.19.29 3.4-7.46-8.0900001-1.32 4.7800001-6.65-7.6600001-2.87 5.98-5.59-6.96-4.31 6.96-4.31-5.98-5.59 7.6600001-2.87-4.7800001-6.65 8.0900001-1.32-3.4-7.46 8.19.29-1.88-7.98 7.98 1.88-.29-8.19 7.46 3.4 1.32-8.0900001 6.65 4.7800001 2.87-7.6600001 5.59 5.98 4.31-6.96 4.31 6.96 5.59-5.98 2.87 7.6600001 6.65-4.7800001 1.32 8.0900001 7.46-3.4-.29 8.19 7.98-1.88-1.88 7.98 8.19-.29-3.4 7.46 8.09 1.32-4.78 6.65 7.660002 2.87z" style="display:inline;fill:#fff;fill-opacity:1;stroke:#fff;stroke-opacity:1"/><g transform="translate(77.560126 -27.259983) scale(.90796789)" style="fill:#fff;fill-opacity:1"><circle r="14.258088" cy="68.183838" cx="-32.55904" style="display:inline;fill:#fff;fill-opacity:1;stroke:none;stroke-width:5.80377"/><circle style="display:inline;fill:#fff;fill-opacity:1;stroke:none;stroke-width:5.80377" cx="-8.6893606" cy="90.637924" r="14.258088"/><circle r="14.258088" cy="101.12518" cx="-40.10968" style="display:inline;fill:#fff;fill-opacity:1;stroke:none;stroke-width:5.80377"/></g></svg>