<svg xmlns="http://www.w3.org/2000/svg" width="38" height="38"><path fill="#fff" d="M29.073 9.964L18.898 4.091a3.255 3.255 0 00-3.259 0L5.465 9.964a3.259 3.259 0 00-1.629 2.822v11.749c0 1.164.621 2.24 1.629 2.82l10.175 5.877a3.26 3.26 0 003.259 0l10.175-5.877a3.252 3.252 0 001.628-2.82V12.786a3.262 3.262 0 00-1.629-2.822m-.978 14.265c0 .35-.187.672-.487.846l-2.381 1.377a.981.981 0 01-.978 0l-2.383-1.377a.975.975 0 01-.488-.846V21.48c0-.35.188-.672.488-.848l2.383-1.374a.972.972 0 01.978 0l2.381 1.374a.982.982 0 01.487.848v2.749z"/></svg>