<svg xmlns="http://www.w3.org/2000/svg" viewBox="0 0 221.7 189"><defs><clipPath id="a"><path d="M0 141.8h166.3V0H0z"/></clipPath></defs><g clip-path="url(#a)" transform="matrix(1.4 0 0 -1.4 -2 193)"><path fill="#fff" fill-rule="evenodd" d="M94.3 76.2H110v14.3H94.3zm-18.6 0h15.7v14.3H75.7zm-18.6 0h15.7v14.3H57.1zm-18.6 0h15.7v14.3H38.5zm-18.7 0h15.8v14.3H19.8zm18.7 17.2h15.7v14.3H38.5zm18.6 0h15.7v14.3H57.1zm18.6 0h15.7v14.3H75.7zm0 17.2h15.7v14.3H75.7zm81.6-26c-3.4 2.2-11.3 3-17.4 2a23 23 0 01-9.8 15.1l-3.3 2.2-2.2-3.3a26 26 0 01-3.8-16c.2-2 .8-5.6 2.9-8.7a24 24 0 00-11.5-2.6H8.6l-.2-1.2c-1-5.7-1-23.6 10.7-37.4C27.9 24.3 41.1 19 58.5 19c37.5 0 65.2 17.2 78.2 48.6 5.1-.1 16.1 0 21.8 10.8l1.5 3 .5 1z"/></g></svg>
