<svg fill="none" xmlns="http://www.w3.org/2000/svg" viewBox="0 0 129 161"><path d="M103 120c9-13 13-30 13-47v-8c0-3-1-6-4-8l-5-4c-2 5-5 11-9 16 6 9 9 19 9 30 0 7-1 14-4 21z" fill="#fff"/><path d="M64 149c5 0 11-3 17-7 11-9 20-27 20-43 0-9-3-18-8-26-7 7-16 10-26 11a56 56 0 01-10 63l7 2zM12 65v8l2 20 16-26c-4-4-6-9-8-14l-6 4c-2 2-4 5-4 8z" fill="#fff"/><path fill-rule="evenodd" clip-rule="evenodd" d="M70 44c-2 2-4 4-6 4s-3-2-5-4l-3-4c-7-7-15-8-21-6s-8 7-8 13a37 37 0 0037 31c11 0 20-4 27-11 5-5 9-12 10-20 1-6-2-11-7-13-6-2-14-1-21 6l-3 4zm-32 5c0-3 2-6 5-6s5 3 5 6c0 4-2 7-5 7s-5-3-5-7zm26 5c3 0 5 1 5 4v1c0 4-1 8-3 11v1l-2 1-1-1v-1a23 23 0 01-3-12c0-3 2-4 4-4zm23-10c3 0 5 2 5 4v3H82v1h-2-1v-3c2-3 5-5 8-5z" fill="#fff"/><path fill-rule="evenodd" clip-rule="evenodd" d="M79 4c5-4 13-5 18 0 15 13 17 29 16 39l6 5c6 4 9 10 9 17v8c0 27-10 53-28 69-13 12-24 18-36 18-11 0-23-6-36-18A94 94 0 010 73v-8c0-7 4-13 9-17l7-5c-1-9 1-25 16-39 5-5 13-4 18 0a22 22 0 0029 0zm29 41l8 7c5 3 7 8 7 13v8c0 26-10 51-26 65-13 12-23 17-33 17-9 0-19-5-32-17A89 89 0 015 73v-8c0-5 3-10 7-13l9-7c-1-7-1-24 14-37 4-3 8-3 11 0a27 27 0 0036 0c3-3 8-3 11 0 15 13 16 29 15 37z" fill="#fff"/></svg>