<svg xmlns="http://www.w3.org/2000/svg" fill="none" viewBox="0 0 305 374">
  <path d="M272.156.725c-77.587 0-92.141 110.508-48.494 110.508 43.64 0 126.083-110.508 48.494-110.508zM143.325 97.54c23.24 1.418 48.737-88.688 5.059-83.02-43.663 5.666-28.307 81.6-5.059 83.02zM36.82 153.529c16.528-7.275 2.129-78.438-25.977-59.03-28.093 19.411 9.449 66.303 25.977 59.03zM83.39 116.282c19.676-4.012 20.754-84.72-14.333-70.242-35.094 14.482-5.327 74.259 14.333 70.242zM186.133 296.895c3.491 26.661-19.559 39.828-42.133 22.64-71.862-54.713 118.985-82.008 106.405-156.756-10.442-62.045-200.813-42.943-222.491 54.139-14.674 65.663 60.402 156.759 138.739 156.759 38.538 0 82.989-34.797 91.305-78.879 6.351-33.615-74.739-20.146-71.825 2.097z" fill="#fff"/>
</svg>
