<svg xmlns="http://www.w3.org/2000/svg" xml:space="preserve" width="502.632" height="502.632"><path d="m17.278 219.901 45.551-45.52V62.83c0-17.278 14.137-31.414 31.415-31.414h31.414c17.278 0 31.415 14.136 31.415 31.414v17.372L219.9 17.435C228.478 9.33 236.332 0 251.316 0s22.838 9.33 31.415 17.435l202.623 202.466c9.801 10.21 17.278 17.655 17.278 31.415 0 17.686-13.571 31.415-31.415 31.415h-31.414v188.487c0 17.277-14.137 31.414-31.415 31.414h-94.243V345.56c0-17.278-14.137-31.415-31.415-31.415h-62.829c-17.277 0-31.414 14.137-31.414 31.415v157.072H94.244c-17.278 0-31.415-14.137-31.415-31.415V282.732H31.414C13.572 282.73 0 269.002 0 251.316c0-13.76 7.477-21.205 17.278-31.415Z" style="fill:#fff;stroke-width:31.4145"/></svg>