<svg xmlns="http://www.w3.org/2000/svg" viewBox="0 0 502.632 502.632" style="enable-background:new 0 0 502.632 502.632" xml:space="preserve">
  <path style="fill:#fff" d="M240.864 269.894s-28.02-53.992-26.985-93.445c.755-28.193 64.324-56.062 89.281-96.529C328.074 39.431 300.054 0 300.054 0s6.234 29.077-10.376 59.147c-16.609 30.113-77.914 47.779-101.749 99.679s52.935 111.068 52.935 111.068z"/>
  <path style="fill:#fff" d="M345.741 105.869s-95.494 36.347-95.494 77.849c0 41.545 25.928 55.027 30.113 68.509 4.142 13.525-7.269 36.347-7.269 36.347s37.361-25.95 31.105-56.062c-6.234-30.113-35.29-39.475-18.659-69.544 11.109-20.169 60.204-57.099 60.204-57.099z"/>
  <path style="fill:#fff" d="M230.51 324.748c88.246-3.149 120.43-30.997 120.43-30.997-57.076 15.553-208.654 14.539-209.711 3.128-1.014-11.411 46.701-20.773 46.701-20.773s-74.721 0-80.955 18.68c-6.235 18.681 35.353 33.047 123.535 29.962zM358.187 368.494s86.369-18.421 77.827-65.338c-10.354-57.119-70.58-24.936-70.58-24.936s42.602 0 46.722 25.928c4.164 25.95-53.969 64.346-53.969 64.346zM315.628 343.601s-21.765 5.716-54.013 9.34c-43.228 4.853-95.494 1.014-99.657-6.256-4.098-7.269 7.269-11.411 7.269-11.411-51.921 12.468-23.512 34.233 37.339 38.418 52.158 3.559 129.791-15.574 129.791-15.574l-20.729-14.517zM181.738 388.943s-23.555.669-24.936 13.137c-1.359 12.382 14.496 23.512 72.65 26.964 58.133 3.451 98.988-15.898 98.988-15.898l-26.295-15.962s-16.631 3.494-42.236 6.946c-25.626 3.473-78.173-2.783-80.243-7.593-2.113-4.855 2.072-7.594 2.072-7.594z"/>
  <path style="fill:#fff" d="M407.994 445.005c8.995-9.707-2.783-17.321-2.783-17.321s4.142 4.853-1.337 10.376c-5.544 5.522-56.084 19.349-137.061 23.512-80.955 4.163-168.856-7.615-171.639-17.99-2.696-10.376 45.018-18.659 45.018-18.659-5.522.69-71.96 2.071-74.074 20.082-2.071 17.968 29.056 32.507 153.67 32.507 124.551-.021 179.254-22.865 188.206-32.507z"/>
  <path style="fill:#fff" d="M359.568 485.817c-54.682 11.044-220.734 4.077-220.734 4.077s107.919 25.626 231.109 4.185c58.888-10.268 62.318-38.763 62.318-38.763s-18.011 19.392-72.693 30.501z"/>
</svg>
