<svg width="74" height="76" fill="none" xmlns="http://www.w3.org/2000/svg"><path d="M72.4 35.76L39.8 3.16 36.64 0 12.1 24.54.88 35.76a3 3 0 000 4.24L23.3 62.42l13.34 13.34 24.54-24.54.38-.38L72.4 40a3 3 0 000-4.24zM36.64 49.08l-11.2-11.2 11.2-11.2 11.2 11.2-11.2 11.2z" fill="#fff"/><path d="M36.64 26.68A18.86 18.86 0 0136.56.09l-24.51 24.5 13.34 13.34 11.25-11.25z" fill="url(#paint0_linear)"/><path d="M47.87 37.85L36.64 49.08a18.86 18.86 0 010 26.68l24.57-24.57-13.34-13.34z" fill="url(#paint1_linear)"/><defs><linearGradient id="paint0_linear" x1="34.64" y1="15.35" x2="19" y2="30.99" gradientUnits="userSpaceOnUse"><stop offset=".18" stop-color="#BBB"/><stop offset="1" stop-color="#fff"/></linearGradient><linearGradient id="paint1_linear" x1="56" y1="46.5" x2="45.5" y2="64" gradientUnits="userSpaceOnUse"><stop offset=".1" stop-color="#fff"/><stop offset="1" stop-color="#BBB"/></linearGradient></defs></svg>
