<svg xmlns="http://www.w3.org/2000/svg" width="400" height="399.334" viewBox="0 0 0 0 400 399.334"><g fill-rule="evenodd"><path d="M198.002 157.121c-5.156 1.288-8.93 2.743-13.399 5.167-2.108 1.144-6.665 4.577-8.779 6.613-2.603 2.509-2.669 2.52-4.54.756a68.103 68.103 0 0 0-3.353-2.898c-1.043-.838-1.987-1.62-2.097-1.737-.839-.894-6.378-3.897-9.191-4.983a215.35 215.35 0 0 1-2.597-1.02c-6.646-2.713-19.093-2.353-26.374.761-16.577 7.092-21.685 26.615-12.247 46.813 2.942 6.296 11.142 15.437 29.037 32.368 4.697 4.444 10.403 9.782 12.614 11.801 5.181 4.729 12.637 11.662 13.204 12.276 1.797 1.951 3.86 1.724 6.543-.719 13.472-12.266 36.656-35.064 45.085-44.337 6.659-7.325 9.867-12.401 11.868-18.781.276-.879.651-2.048.835-2.598 1.611-4.821 1.03-15.75-1.096-20.639-.302-.693-.548-1.392-.548-1.553 0-.161-1.09-1.932-2.423-3.935-3.832-5.76-8.374-9.102-16.558-12.182-3.608-1.358-12.601-2.018-15.984-1.173" fill="#fc5c5c"/><path d="M73.526 110.689c0 .22-.647.4-1.438.4-3.347 0-7.752 3.838-7.752 6.754 0 .241-.18.439-.4.439-.259 0-.4 5.386-.4 15.361 0 9.809-.144 15.45-.399 15.608-.261.161-.4 11.251-.4 31.968 0 20.716.139 31.807.4 31.968.261.161.399 11.326.399 32.191 0 18.195.152 31.945.353 31.945.194 0 .479 1.348.634 2.997.154 1.648.445 2.997.646 2.997s.365.449.365.999c0 .549.172.999.382.999.21 0 .5.629.644 1.398.144.77.422 1.399.617 1.399.196 0 .355.27.355.599 0 .33.161.6.357.6.196 0 .469.449.607.999.138.549.427.999.642.999.216 0 .392.187.392.416 0 .425.589 1.24 1.518 2.1.285.265.735.714.999.999.264.286.717.735 1.005.999.288.265.993.975 1.565 1.58.572.604 1.24 1.098 1.485 1.098.245 0 .703.359 1.02.798.316.438 1.165.908 1.886 1.043.721.136 1.312.406 1.312.602 0 .195.269.355.599.355.33 0 .599.18.599.399 0 .22.405.401.9.402.494.002 1.414.271 2.043.6.63.328 1.559.597 2.065.597s.98.175 1.053.39c.073.215 1.713.512 3.643.66 1.931.147 3.605.421 3.72.608.3.486 24.539.438 24.539-.049 0-.249 23.762-.428 66.4-.499 52.686-.088 66.435-.214 66.567-.611.091-.275.601-.499 1.132-.499.531 0 .965-.163.965-.362 0-.2.9-.486 1.998-.637 1.099-.151 1.998-.438 1.998-.637s.27-.362.6-.362c.33 0 .599-.16.599-.355 0-.196.63-.474 1.399-.618.769-.144 1.398-.434 1.398-.644 0-.21.27-.381.6-.381.33 0 .599-.18.599-.4 0-.22.335-.4.743-.4.409 0 1.081-.449 1.494-.999.413-.549.963-.999 1.224-.999.566 0 6.13-5.421 6.13-5.972 0-.212.442-.827.982-1.368.541-.54 1.1-1.447 1.243-2.016.142-.568.38-1.033.529-1.033.459 0 1.641-2.275 1.641-3.159 0-.46.18-.837.4-.837.22 0 .399-.36.399-.799 0-.44.163-.8.363-.8.199 0 .485-.899.636-1.998.152-1.098.438-1.998.637-1.998.2 0 .362-.503.362-1.118 0-.616.177-1.296.393-1.512.216-.216.514-2.5.661-5.075.147-2.575.419-4.682.606-4.682.186 0 .338-1.529.338-3.397v-3.396h7.393c4.066 0 7.393-.153 7.393-.339 0-.186 2.107-.459 4.682-.606 2.575-.147 4.859-.444 5.075-.66.216-.217.896-.393 1.511-.393.616 0 1.119-.162 1.119-.359 0-.198 1.259-.486 2.798-.64 1.538-.155 2.797-.443 2.797-.64 0-.198.449-.359.999-.359.549 0 .999-.163.999-.362 0-.2.899-.486 1.998-.637 1.099-.151 1.998-.438 1.998-.637s.349-.362.775-.362c.427 0 .879-.166 1.004-.369.125-.203.765-.487 1.422-.631.657-.145 1.194-.428 1.194-.631 0-.202.45-.367.999-.367.55 0 .999-.158.999-.35 0-.192.564-.462 1.253-.6.689-.138 1.543-.584 1.898-.992.355-.408 1.095-.881 1.645-1.052.549-.171 1.088-.421 1.198-.557.292-.358 1.66-1.187 2.708-1.639.5-.216 1.014-.665 1.142-.998.127-.333.474-.606.77-.606.296 0 .988-.449 1.538-.999.549-.549 1.18-.999 1.401-.999.221 0 1.115-.719 1.985-1.598.87-.879 1.699-1.598 1.842-1.598.33 0 5.398-5.079 5.398-5.41 0-.136.719-.96 1.598-1.83.879-.87 1.598-1.803 1.598-2.072 0-.269.45-.826.999-1.239.55-.413.999-1.085.999-1.493 0-.409.183-.744.406-.744.224 0 .718-.674 1.098-1.498.38-.824.994-1.779 1.365-2.122.371-.342.796-1.107.944-1.698.149-.591.43-1.075.626-1.075s.357-.36.357-.799c0-.44.165-.8.367-.8.203 0 .487-.539.632-1.198.144-.66.428-1.199.631-1.199.202 0 .368-.45.368-.999 0-.55.168-.999.375-.999.206 0 .496-.809.644-1.798.149-.989.43-1.799.624-1.799.195 0 .355-.449.355-.999 0-.549.165-.999.367-.999.203 0 .493-1.168.646-2.597.153-1.429.437-2.597.632-2.597.194 0 .353-.684.353-1.519 0-.835.224-1.743.499-2.018.379-.379.5-3.582.5-13.247s-.121-12.868-.5-13.246c-.275-.275-.499-1.273-.499-2.218 0-.945-.155-1.718-.343-1.718-.189 0-.46-1.124-.603-2.498-.144-1.374-.439-2.557-.657-2.631-.217-.073-.395-.57-.395-1.104 0-.534-.158-1.283-.35-1.665-.193-.382-.671-1.728-1.064-2.992-.393-1.263-.857-2.297-1.031-2.297-.174 0-.435-.632-.58-1.403-.144-.772-.422-1.502-.617-1.622-.195-.121-.354-.568-.354-.995 0-.426-.161-.775-.357-.775-.196 0-.458-.409-.584-.908-.125-.498-.587-1.292-1.026-1.764-.439-.471-.918-1.334-1.065-1.918-.146-.583-.603-1.271-1.015-1.529-.412-.257-.749-.789-.749-1.183s-.269-.819-.599-.946c-.33-.126-.599-.437-.599-.69 0-.254-.45-.946-.999-1.539-.55-.592-.999-1.196-.999-1.341 0-.146-.675-.961-1.499-1.812-.824-.85-1.715-1.773-1.979-2.05a27.34 27.34 0 0 0-.999-.985 21.888 21.888 0 0 1-.999-.999 25.626 25.626 0 0 0-.999-1.007c-.822-.774-1.475-1.429-2.599-2.608-.577-.605-1.207-1.099-1.4-1.099-.194 0-.802-.45-1.351-.999-.549-.55-1.218-.999-1.485-.999-.268 0-.824-.45-1.237-.999-.413-.55-1.085-.999-1.493-.999-.409 0-.744-.18-.744-.4 0-.219-.269-.399-.599-.399-.33 0-.599-.177-.599-.392 0-.216-.45-.505-.999-.643-.55-.138-.999-.411-.999-.607s-.27-.356-.6-.356c-.33 0-.599-.16-.599-.355 0-.196-.63-.474-1.399-.618-.769-.144-1.398-.434-1.398-.644 0-.21-.27-.381-.6-.381-.33 0-.599-.16-.599-.355 0-.196-.63-.474-1.399-.618-.769-.144-1.398-.39-1.398-.546 0-.413-2.111-1.282-3.767-1.551-.785-.127-1.428-.388-1.428-.579 0-.191-.439-.347-.976-.347-.536 0-1.078-.166-1.203-.369-.125-.202-1.394-.493-2.82-.645-1.427-.153-2.594-.437-2.594-.631s-.503-.353-1.119-.353c-.615 0-1.302-.184-1.526-.408-.224-.224-3.317-.522-6.873-.662s-6.466-.406-6.466-.591c0-.186-49.99-.337-111.089-.337-73.792 0-111.089.134-111.089.399m227.773 38.362c0 .22.719.4 1.598.4.879 0 1.599.162 1.599.362 0 .199.899.485 1.998.637 1.098.151 1.998.437 1.998.636 0 .2.449.363.999.363.549 0 .999.165.999.367 0 .203.584.497 1.298.653.714.157 1.568.589 1.898.959.33.37.869.795 1.199.943 1.654.743 7.593 6.297 7.593 7.1 0 .223.449.822.999 1.331.549.509.999 1.13.999 1.38 0 .249.159.453.355.453.195 0 .473.63.617 1.399.144.769.434 1.399.644 1.399.21 0 .382.269.382.599 0 .33.162.599.362.599.199 0 .485.899.637 1.998.151 1.099.437 1.998.636 1.998.2 0 .363.81.363 1.799 0 .989.179 1.798.399 1.798.249 0 .4 2.264.4 5.994 0 3.729-.151 5.994-.4 5.994-.22 0-.399.888-.399 1.974 0 1.086-.163 2.075-.361 2.197-.198.123-.485 1.302-.638 2.621-.153 1.319-.441 2.399-.639 2.399s-.36.359-.36.799c0 .439-.157.799-.349.799-.192 0-.464.719-.604 1.598-.141.88-.433 1.599-.651 1.599-.217 0-.394.27-.394.599 0 .33-.177.6-.392.6-.216 0-.505.449-.643.999-.138.549-.372.999-.521.999-.149 0-.603.564-1.01 1.253-.777 1.315-4.856 5.54-5.348 5.54-.158 0-.771.449-1.364.999-.592.549-1.265.999-1.494.999-.23 0-.417.16-.417.356 0 .196-.45.469-.999.607-.55.138-.999.427-.999.643 0 .215-.36.392-.799.392-.44 0-.8.164-.8.364 0 .201-.719.486-1.598.635-.879.148-1.598.434-1.598.634 0 .201-.435.365-.966.365-.531 0-1.041.225-1.132.499-.126.378-2.71.533-10.623.635l-10.456.134v-70.799h8.991c5.727 0 8.991.145 8.991.4m-90.815 7.651c10.21 2.455 18.229 8.288 22.166 16.125 2.903 5.777 3.274 7.46 3.263 14.785-.009 6.436-.135 7.256-1.973 12.867-1.023 3.12-5.388 11.243-6.509 12.108-.142.11-1.337 1.459-2.655 2.997-1.319 1.539-3.432 3.849-4.696 5.135-1.264 1.285-2.298 2.431-2.298 2.545 0 .262-19.205 19.386-24.592 24.488-19.979 18.922-18.915 18.077-21.311 16.94-.764-.363-1.78-1.041-2.257-1.507-1.003-.98-9.006-8.415-10.781-10.015a898.225 898.225 0 0 1-6.194-5.744c-18.051-16.852-31.045-30.013-34.394-34.837-9.391-13.523-10.646-33.11-2.817-43.958 3.031-4.199 7.49-7.52 13.435-10.006 4.232-1.769 17.01-2.554 21.179-1.301.879.264 2.677.786 3.996 1.16 5.035 1.429 11.639 5.348 16.61 9.857 2.148 1.949 2.9 2.251 3.45 1.387.731-1.148 7.76-6.691 8.485-6.691.234 0 .427-.135.429-.3.002-.165.406-.494.899-.732.493-.237 2.065-1.021 3.494-1.741 1.428-.72 2.873-1.447 3.21-1.615.336-.168 1.23-.441 1.984-.607.755-.166 1.648-.441 1.985-.611 2.247-1.136 12.286-1.596 15.892-.729" fill="#fcfcfc"/><path d="M199.106 156.531c.608.091 1.507.089 1.998-.006.492-.095-.005-.17-1.104-.167-1.099.003-1.501.081-.894.173m7.787-.005a5.707 5.707 0 0 0 1.798 0c.495-.095.09-.173-.899-.173s-1.393.078-.899.173m-74.026.917c-.504.216-.577.343-.2.343.33 0 .959-.155 1.399-.343.504-.217.578-.344.2-.344-.33 0-.959.155-1.399.344m15.418-.256c.092.079.706.264 1.365.411.876.196 1.037.159.6-.137-.54-.365-2.366-.62-1.965-.274m73.893 4.615c.549.45 1.179.819 1.398.82.428.003-.295-.55-1.598-1.224-.531-.274-.464-.138.2.404m-100.977 1.064l-1.121 1.028 1.299-.903c.714-.497 1.298-.96 1.298-1.028 0-.316-.442-.045-1.476.903m106.172 3.168c1.193 1.209 2.26 2.198 2.37 2.198.11 0-.777-.989-1.971-2.198s-2.26-2.198-2.37-2.198c-.11 0 .777.989 1.971 2.198m-48.367-.571l-1.384 1.228 1.499-1.075c1.324-.95 1.755-1.38 1.383-1.38-.063 0-.737.552-1.498 1.227m-9.688 1.978c.707.742 1.353 1.268 1.436 1.17.083-.099-.496-.706-1.286-1.349l-1.436-1.17 1.286 1.349m6.2.802c-.718.653-1.156 1.188-.974 1.188.182 0 .848-.54 1.48-1.199 1.469-1.533 1.185-1.527-.506.011m59.691 12.177c.329 1.469.557 1.788.549.765-.003-.421-.189-1.035-.412-1.365-.296-.438-.333-.276-.137.6m-124.663.283c-.135.504-.227 1.455-.204 2.114.029.827.145.584.374-.786.349-2.088.247-2.884-.17-1.328m125.311 4.312c0 .769.082 1.084.183.699.1-.384.1-1.014 0-1.398-.101-.385-.183-.07-.183.699m-125.539 6.027c.015.751.184 1.725.374 2.165.223.514.264.086.116-1.199-.275-2.376-.53-2.878-.49-.966m124.875 3.792c-.147.585-.19 1.142-.096 1.236.095.094.292-.308.439-.894.147-.585.19-1.142.096-1.236-.094-.094-.292.308-.439.894m-6.936 15.955c-.697.989-1.135 1.798-.972 1.798.162 0 .546-.404.852-.899.306-.494.82-1.303 1.141-1.798 1.058-1.628.273-.937-1.021.899m-4.875 5.988c-.742.766-1.272 1.454-1.177 1.529.095.076.778-.551 1.518-1.392 1.681-1.911 1.464-1.998-.341-.137m-101.079.836c.755.896 1.454 1.564 1.553 1.485.099-.079-.519-.812-1.373-1.629l-1.554-1.485 1.374 1.629m9.166 9.56c3.401 3.406 6.274 6.194 6.383 6.194.11 0-2.583-2.788-5.984-6.194-3.401-3.407-6.274-6.194-6.384-6.194-.11 0 2.583 2.787 5.985 6.194m76.328 5.951l-5.389 5.637 5.689-5.589c3.129-3.074 5.689-5.636 5.689-5.694 0-.481-1.325.769-5.989 5.646m-66.338 3.549c0 .061 1.393 1.454 3.096 3.097l3.097 2.987-2.987-3.097c-2.774-2.876-3.206-3.279-3.206-2.987m8.191 7.882c1.083 1.099 2.058 1.998 2.168 1.998.11 0-.686-.899-1.768-1.998-1.082-1.098-2.058-1.998-2.168-1.998-.11 0 .686.9 1.768 1.998m44.743 1.699l-2.385 2.497 2.497-2.385c1.374-1.312 2.498-2.436 2.498-2.497 0-.296-.394.065-2.61 2.385m-37.949 4.695c.858.879 1.65 1.598 1.76 1.598.11 0-.502-.719-1.361-1.598-.858-.879-1.651-1.598-1.76-1.598-.11 0 .502.719 1.361 1.598m2.197 2.076c2.556 2.377 4.068 3.551 2.798 2.173-.77-.835-1.759-1.707-2.198-1.938-.44-.232-.71-.338-.6-.235m26.352 2.22l-1.377 1.498 1.499-1.377c1.395-1.282 1.682-1.62 1.377-1.62-.067 0-.741.675-1.499 1.499m-5.787 5.394l-1.983 2.098 2.098-1.983c1.154-1.09 2.098-2.034 2.098-2.098 0-.298-.371.034-2.213 1.983m-14.13-1.598c.095.055 1.069.909 2.164 1.898l1.991 1.798-1.782-1.898c-.98-1.044-1.954-1.898-2.164-1.898-.211 0-.305.045-.209.1" fill="#fcc4c3"/><path d="M202.904 156.533c.718.089 1.797.087 2.398-.004.6-.091.013-.164-1.306-.161-1.319.002-1.81.076-1.092.165m-62.932.405c1.051.082 2.669.081 3.597-.003.927-.083.067-.151-1.911-.15-1.978.001-2.736.07-1.686.153m-29.545 29.875c.001 1.758.071 2.428.156 1.488.084-.94.083-2.378-.003-3.197-.086-.818-.155-.049-.153 1.709m125.438.799c.004.88.086 1.192.182.695.095-.497.092-1.216-.008-1.598-.1-.382-.178.024-.174.903m-83.218 59.466c0 .069.585.653 1.299 1.299l1.299 1.173-1.174-1.298c-1.094-1.211-1.424-1.483-1.424-1.174" fill="#fcacac"/><path d="M197.403 157.043c-.803.257-.843.322-.2.332.439.006 1.159-.143 1.598-.332 1.018-.438-.032-.438-1.398 0m11.588-.006c.33.217 1.034.396 1.565.399 1.283.009.958-.219-.766-.535-.984-.18-1.221-.14-.799.136m-72.827.288a5.707 5.707 0 0 0 1.798 0c.495-.095.09-.173-.899-.173s-1.394.078-.899.173m9.195.001c.497.095 1.217.092 1.599-.008.382-.101-.025-.179-.904-.174-.879.004-1.192.086-.695.182m80.016 7.035c0 .069.584.653 1.298 1.299l1.299 1.173-1.174-1.299c-1.094-1.21-1.423-1.482-1.423-1.173m-107.289 1.469c-.63.657-1.068 1.258-.974 1.336.094.078.683-.459 1.309-1.194 1.413-1.66 1.204-1.748-.335-.142m57.114 3.242c-.646.683-1.534 1.391-1.973 1.574-.558.232-.613.34-.181.358.34.014 1.32-.694 2.179-1.573.858-.88 1.468-1.599 1.354-1.599-.113 0-.734.558-1.379 1.24m-63.862 9.365a3.839 3.839 0 0 0-.215 1.316c.019.367.193.136.387-.512.376-1.261.243-1.886-.172-.804m124.141 5.979c.003 1.098.081 1.501.172.893.092-.607.09-1.506-.005-1.998-.095-.491-.17.006-.167 1.105m.005 6.593c0 1.209.075 1.703.167 1.099a8.882 8.882 0 0 0 0-2.198c-.092-.604-.167-.11-.167 1.099m-114.005 25.3c0 .069.584.653 1.298 1.299l1.299 1.173-1.174-1.298c-1.094-1.211-1.423-1.483-1.423-1.174m100.873 1.174l-1.173 1.298 1.299-1.173c.714-.646 1.298-1.23 1.298-1.299 0-.309-.329-.037-1.424 1.174m-5.576 5.994l-3.989 4.095 4.096-3.988c2.253-2.194 4.096-4.037 4.096-4.096 0-.289-.499.184-4.203 3.989m-85.307 3.296c3.181 3.187 5.873 5.794 5.983 5.794.11 0-2.403-2.607-5.584-5.794-3.181-3.187-5.874-5.794-5.984-5.794-.109 0 2.403 2.607 5.585 5.794m76.317 6.094l-4.989 5.095 5.095-4.989c4.733-4.634 5.276-5.201 4.989-5.201-.058 0-2.351 2.293-5.095 5.095m-64.329 5.495c1.415 1.428 2.664 2.597 2.774 2.597.11 0-.959-1.169-2.375-2.597-1.416-1.429-2.664-2.598-2.774-2.598-.11 0 .959 1.169 2.375 2.598m56.729 1.698l-2.184 2.298 2.298-2.185c2.134-2.029 2.48-2.411 2.184-2.411-.063 0-1.097 1.034-2.298 2.298m-50.136 4.495c1.305 1.319 2.462 2.398 2.572 2.398.11 0-.868-1.079-2.172-2.398-1.305-1.318-2.463-2.397-2.573-2.397-.11 0 .868 1.079 2.173 2.397m44.555.999c-1.637 1.649-2.887 2.997-2.777 2.997.11 0 1.54-1.348 3.177-2.997 1.637-1.648 2.887-2.997 2.777-2.997-.11 0-1.539 1.349-3.177 2.997m-38.361 4.796c.745.769 1.445 1.398 1.555 1.398.11 0-.41-.629-1.156-1.398-.745-.77-1.445-1.399-1.555-1.399-.11 0 .41.629 1.156 1.399m30.769 2.397c-.971.989-1.675 1.798-1.565 1.798.11 0 .994-.809 1.965-1.798.97-.989 1.674-1.798 1.565-1.798-.11 0-.994.809-1.965 1.798m-25.375 2.598c1.305 1.318 2.463 2.397 2.573 2.397.11 0-.868-1.079-2.173-2.397-1.305-1.319-2.463-2.398-2.572-2.398-.11 0 .867 1.079 2.172 2.398m5.28 4.791c1.366 1.41 2.54 2.482 2.61 2.383.07-.1-1.047-1.253-2.483-2.564l-2.609-2.382 2.482 2.563m13.083-.695l-1.579 1.698 1.698-1.58c.934-.869 1.698-1.633 1.698-1.698 0-.302-.348 0-1.817 1.58m-4.015 3.543c-.419.466-1.121.994-1.56 1.174-.566.231-.617.334-.175.352.343.014 1.141-.514 1.773-1.173.632-.66 1.053-1.199.936-1.199-.117 0-.555.381-.974.846" fill="#fca4a4"/></g></svg>
