<svg xmlns="http://www.w3.org/2000/svg" fill="#FFF" viewBox="0 0 12 20">
  <path d="M2.8 5.2c0-.5 0-.8-.1-1 0-.2-.1-.3-.3-.3-.2 0-.5-.1-1-.1s-.8 0-1 .1l-.3.3c0 .2-.1.5-.1 1v7L2.8 10V5.2zM.1 14v1.5c0 .5 0 .8.1 1 0 .2.1.3.3.3.2 0 .5.1 1 .1s.8 0 1-.1c.2 0 .3-.1.3-.3 0-.2.1-.5.1-1V11.9L.1 14zM4.6 10.4v4.9c0 .5 0 .8.1 1 0 .2.1.3.3.3.2 0 .5.1 1 .1s.8 0 1-.1c.2 0 .3-.1.3-.3 0-.2.1-.5.1-1V8.2l-2.8 2.2zM7.3 5.3v-.1c0-.5 0-.8-.1-1 0-.1-.1-.2-.2-.3-.2 0-.5-.1-1-.1s-.8 0-1 .1c-.2.1-.3.2-.4.3 0 .2-.1.5-.1 1v3.5l2.8-2.2V5.3zM11.9 10.4v4.9c0 .5 0 .8-.1 1 0 .2-.1.3-.3.3-.2 0-.5.1-1 .1s-.8 0-1-.1c-.2 0-.3-.1-.3-.3 0-.2-.1-.5-.1-1V8.2l2.8 2.2zM9.1 5.3v-.1c0-.5 0-.8.1-1 0-.2.1-.3.3-.3.2 0 .5-.1 1-.1s.8 0 1 .1c.2 0 .3.1.3.3 0 .2.1.5.1 1v3.5L9.1 6.5V5.3z" class="st0"/>
</svg>
