<svg width="16" height="16" xmlns="http://www.w3.org/2000/svg">
  <path fill="#FFF" d="m15.81 10-2.5-5H14c.276 0 .5-.224.5-.5S14.276 4 14 4h-.79c-1.056-1.145-2.541-1.881-4.198-1.95L9 2c0-.552-.448-1-1-1s-1 .448-1 1v.05c-1.681.073-3.178.807-4.247 1.947L2 4c-.276 0-.5.224-.5.5s.224.5.5.5h.69l-2.5 5H0c0 1.1 1.34 2 3 2s3-.9 3-2h-.19L3.26 4.91a.5245.5245 0 0 0 .159-.148c.873-1.019 2.148-1.669 3.575-1.702L7 14H6v1H4v1h8v-1h-2v-1H9V3.06c1.418.03 2.679.682 3.524 1.693.053.084.117.145.193.186L10.19 10H10c0 1.1 1.34 2 3 2s3-.9 3-2h-.19zM5 10H1l2-3.94zm6 0 2-3.94L15 10h-4z"/>
</svg>
