<svg xmlns="http://www.w3.org/2000/svg" viewBox="0 0 490 490" style="enable-background:new 0 0 490 490" xml:space="preserve">
  <path d="M439.976 110c-.001-2.602-.992-5.159-2.904-7.071l-100-100c-1.912-1.912-4.47-2.903-7.071-2.904V0H60c-5.523 0-10 4.477-10 10v470c0 5.523 4.477 10 10 10h370c5.522 0 10-4.477 10-10V110h-.024zM340 34.142 405.857 100H340V34.142zM420 470H70V20h250v90c0 5.523 4.478 10 10 10h90v350z" fill="#FFF"/>
  <path d="M379.447 339.49c-7.657-12.376-20.975-19.475-36.535-19.475-7.511 0-15.198 1.64-22.912 4.882-7.714-3.242-15.401-4.882-22.912-4.882-15.56 0-28.875 7.099-36.533 19.476-8.036 12.989-8.541 29.684-1.551 46.403-6.992 16.688-6.49 33.368 1.542 46.364 7.666 12.403 20.998 19.516 36.577 19.515 7.501 0 15.178-1.637 22.877-4.872 7.7 3.235 15.375 4.872 22.874 4.872h.004c15.579-.001 28.911-7.116 36.576-19.52 8.031-12.996 8.533-29.673 1.542-46.358 6.992-16.723 6.487-33.417-1.549-46.405zm-17.006 82.249c-3.998 6.469-10.946 10.033-19.564 10.034-5.817 0-12.01-1.621-18.404-4.818-1.407-.704-2.94-1.056-4.472-1.056s-3.065.352-4.472 1.056c-6.393 3.196-12.586 4.817-18.406 4.818-8.618 0-15.566-3.562-19.564-10.03-5.023-8.128-4.519-19.563 1.386-31.372a10.0035 10.0035 0 0 0 .005-8.935c-5.908-11.846-6.413-23.298-1.387-31.422 3.989-6.448 10.924-9.999 19.525-9.999 5.829 0 12.033 1.625 18.44 4.828a10.0014 10.0014 0 0 0 8.943 0c6.407-3.204 12.611-4.828 18.44-4.828 8.603 0 15.538 3.551 19.527 9.998 5.026 8.123 4.52 19.576-1.389 31.423-1.401 2.813-1.4 6.123.007 8.935 5.903 11.806 6.408 23.239 1.385 31.368z" fill="#FFF"/>
  <path style="fill:#fff" d="M310 360.898h20v20h-20zM300 390.898h40v20h-40zM95 395h120v20H95zM195 430h20v20h-20zM165 430h20v20h-20zM95 430h20v20H95zM95 40h60v20H95zM95 70h120v20H95zM165 150h160v20H165zM95 190h300v20H95zM95 230h300v20H95zM95 270h240v20H95zM375 270h20v20h-20zM345 270h20v20h-20z"/>
</svg>
