<svg xmlns="http://www.w3.org/2000/svg" fill="#fff" viewBox="0 0 24 24"><path d="M5.41330502 23.95317539H.44437552V7.9867947h4.9689295zM2.92884027 5.80208299c-1.59496503 0-2.87623502-1.29102939-2.87623502-2.87902342 0-1.58659982 1.28266419-2.876235 2.87623502-2.876235 1.58938823 0 2.87762921 1.28963518 2.87762921 2.876235 0 1.58799403-1.28963518 2.87902342-2.87762921 2.87902342zM23.99520529 23.95317539h-4.95498751v-7.76430091c0-1.85149787-.0376434-4.23418601-2.58205877-4.23418601-2.58345297 0-2.97801163 2.01461929-2.97801163 4.09755439v7.90093253H8.52515987V7.9867947h4.75979948v2.17634651h.06413321c.6650335-1.25478018 2.28230573-2.57927037 4.69845468-2.57927037 5.02051492 0 5.94905225 3.30425448 5.94905225 7.6053621v8.76394245z"/></svg>