<svg xmlns="http://www.w3.org/2000/svg" id="svg13260" version="1.1" viewBox="0 0 32 32"><path id="path13258" d="M30 2.0000001V30h-3v2h5V0l-5 3e-8V2ZM9.9515939 10.594002V12.138h.043994c.3845141-.563728.8932271-1.031728 1.4869981-1.368.580003-.322998 1.244999-.485 1.993002-.485.72 0 1.376999.139993 1.971998.42.595.279004 1.047001.771001 1.355002 1.477001.338003-.500001.795999-.941 1.376999-1.323001.579999-.382998 1.265998-.574 2.059998-.574.602003 0 1.160002.074 1.674002.220006.514.148006.953998.382998 1.321999.706998.36601.322999.653001.746.859 1.268002.205001.521998.307994 1.15.307994 1.887001v7.632997h-3.127v-6.463997c0-.383002-.01512-.743002-.04399-1.082003-.02079-.3072-.103219-.607113-.242003-.881998-.133153-.25081-.335962-.457777-.584001-.596002-.257008-.146003-.605998-.220006-1.046997-.220006-.440002 0-.796003.085-1.068.253002-.272013.170003-.485001.390002-.639001.662003-.159119.287282-.263585.601602-.307994.926997-.05197.346923-.07801.697217-.07801 1.048002v6.353999h-3.128005v-6.398c0-.338003-.0072-.673001-.02116-1.004001-.01134-.313663-.07487-.623229-.187994-.915999-.107943-.276623-.300435-.512126-.550001-.673001-.25799-.168-.636-.253002-1.134999-.253002-.198123.0083-.394383.04195-.584002.100006-.258368.07446-.498455.201827-.704999.373985-.227981.183987-.421999.449-.583997.794003-.161008.345978-.242003.797998-.242003 1.356998v6.618999H6.99942V10.590001ZM2 2.0000001V30h3v2H0V1.3e-7l5-1e-7V2Z" style="fill:#fff;fill-opacity:1;image-rendering:auto"/></svg>