<svg xmlns="http://www.w3.org/2000/svg" id="Layer_1" width="864px" height="864px" x="0px" y="0px" enable-background="new 0 0 864 864" version="1.1" xml:space="preserve"><defs/><g fill-rule="evenodd" clip-rule="evenodd"><path d="M758.567,113.176c0,215.327,0,429.207,0,644.506c-215.215,0-429.912,0-645.704,0 c0-214.5,0-428.795,0-644.506C327.478,113.176,542.173,113.176,758.567,113.176z"/><path fill="#FFFFFF" d="M137.333,137.323c0,198.884,0,395.854,0,593.83 c199.175,0,397.201,0,596.219,0c0.39-6.018,1-595.143,1-595.143C548.199,136.573,143.562,137.019,137.333,137.323z M207.491,256.627c11.139,0,150.251,2.444,150.251,2.444c0.886,38.729-0.159,83.679-0.159,124.007c-51.779,0-100.228,0-150.093,0 C207.491,341.278,207.491,300.36,207.491,256.627z M588.743,644.729c0,0-69.767-0.163-73.901-0.024 c-0.03,0.01-0.06,0.026-0.092,0.024c-0.171-0.009-0.127-0.018,0.092-0.024c3.228-1.077-0.593-67.855-0.593-67.855 c-25.848,0-134.963,0.29-156.151-0.305v66.323c0,0-51.736,0.117-74.172,0.117c0-65.145,0-127.409,0-192.044 c25.198,0,49.589,0,75.714,0c0-22.062,0-41.81,0-62.909c51.201,0,100.611,0,151.543,0c0,19.861,0,39.129,0,60.06 c26.336,0,51.249,0,77.56,0C588.743,514.078,588.743,578.39,588.743,644.729z M666.555,383.386c-50.694,0-100.421,0-151.805,0 c0-41.935,0-83.841,0-126.823c50.092,0,99.761,0,151.805,0C666.555,299.078,666.555,340.618,666.555,383.386z"/></g></svg>
