<svg xmlns="http://www.w3.org/2000/svg" width="251" height="251"><path fill="#0DC09D" d="M0 47.02c39.45 2.62 71.06 34.307 73.54 73.795h46.07C117.05 55.859 64.93 3.642 0 .943V47.02ZM73.8 131.324c-2.62 39.447-34.31 71.055-73.8 73.535v46.067c64.96-2.56 117.18-54.677 119.88-119.602H73.8ZM176.201 120.545c2.62-39.448 34.31-71.056 73.8-73.535V.943c-64.96 2.56-117.18 54.676-119.88 119.602h46.08ZM250.001 204.849c-39.45-2.62-71.06-34.307-73.54-73.795h-46.07c2.56 64.956 54.68 117.172 119.61 119.872v-46.077Z"/></svg>