<svg xmlns="http://www.w3.org/2000/svg" width="400" height="400"><g fill-rule="evenodd"><path d="M70 70v260h129l1-105V121h79l1 105v104h50V70H70" fill="#fbfafb"/><path d="M0 200v200h400V0H0v200M332 69a25933 25933 0 001 260c1 1-3 5-5 4a466 466 0 00-50-1l-1-1V227 123h-75a15989 15989 0 00-2 209 1645 1645 0 01-133-4 26360 26360 0 001-259l2-2h260l2 2" fill="#c42424"/><path d="M68 69a26360 26360 0 01-1 260c-1 1 3 5 5 4a1971 1971 0 01128-1l1-3 1-206h75v208l1 1 21 1h29c2 1 6-3 5-5a25933 25933 0 01-1-259l-2-2H70l-2 2m263 0v262h-52l-1-104V122h-78v209H69V69h262" fill="#ac3236"/><path d="M69 69v262h131V122h78a8865 8865 0 011 209h52V69H69m262 131v131h-52V227 122l-40-1h-39v210H69V69h262v131" fill="#bb6d74"/><path d="M69 200v131h131V121h39l40 1v209h52V69H69v131M330 70v260h-50V226l-1-105h-79v104l-1 105H70V70h260" fill="#fcd4d4"/></g></svg>
