<svg xmlns="http://www.w3.org/2000/svg" viewBox="0 0 38 38"><g fill="none" fill-rule="evenodd" style="fill:#fff;fill-opacity:1;fill-rule:nonzero"><path d="M34.619424 8.1788001C36.750849 11.249527 38 14.978886 38 19s-1.249151 7.750473-3.380576 10.8212l-4.921746-4.921747c.966496-1.748848 1.516608-3.759908 1.516608-5.899453 0-2.139545-.550112-4.150605-1.516608-5.899453zM29.8212 3.3805755l-4.921747 4.9217467C23.150605 7.3358258 21.139545 6.7857143 19 6.7857143 12.254236 6.7857143 6.7857143 12.254236 6.7857143 19c0 6.745764 5.4685217 12.214286 12.2142857 12.214286 2.139545 0 4.150605-.550112 5.899453-1.516608l4.921747 4.921746C26.750473 36.750849 23.021114 38 19 38 8.5065898 38 0 29.49341 0 19 0 8.5065898 8.5065898 0 19 0c4.021114 0 7.750473 1.2491511 10.8212 3.3805755z" fill="#7fadf2" style="fill:#fff;fill-opacity:1;fill-rule:nonzero;image-rendering:auto"/><path d="M34.619424 8.1788001C36.750849 11.249527 38 14.978886 38 19s-1.249151 7.750473-3.380576 10.8212l-4.921746-4.921747c.966496-1.748848 1.516608-3.759908 1.516608-5.899453 0-2.139545-.550112-4.150605-1.516608-5.899453z" fill="#b8d3f4" style="fill:#fff;fill-opacity:1;fill-rule:nonzero;image-rendering:auto"/></g></svg>