<svg xmlns="http://www.w3.org/2000/svg" data-name="Layer 1" viewBox="0 0 153.14 178"><defs><linearGradient id="a" x1="41.76" x2="110.1" y1="-17.79" y2="180.87" gradientUnits="userSpaceOnUse"><stop offset="0" stop-color="#515bd4"/><stop offset=".25" stop-color="#8134af"/><stop offset=".5" stop-color="#dd2a7b"/><stop offset=".75" stop-color="#f58529"/><stop offset="1" stop-color="#feda77"/></linearGradient></defs><path d="M119.16 82.5c-.76-.37-1.54-.72-2.33-1.06-1.37-25.32-15.21-39.81-38.43-40h-.32c-13.89 0-25.45 5.93-32.56 16.72L58.3 67c5.31-8.06 13.65-9.78 19.79-9.78h.21c7.65.05 13.42 2.27 17.15 6.61 2.72 3.15 4.54 7.52 5.44 13a97.8 97.8 0 0 0-22-1.06C56.85 77 42.66 89.92 43.61 107.81a27.6 27.6 0 0 0 12.73 22A39.4 39.4 0 0 0 80 135.75c11.55-.64 20.61-5 26.93-13.1 4.8-6.12 7.83-14.05 9.17-24a28.29 28.29 0 0 1 11.84 13c3.83 8.93 4.06 23.61-7.92 35.58-10.49 10.48-23.11 15-42.17 15.15-21.15-.15-37.14-6.93-47.54-20.15-9.7-12.47-14.73-30.35-14.91-53.23.18-22.88 5.21-40.76 15-53.14 10.4-13.22 26.39-20 47.54-20.15 21.3.15 37.57 7 48.36 20.25 5.3 6.51 9.29 14.7 11.92 24.25l15-4a81.07 81.07 0 0 0-15-30.29C124.26 8.91 104 .18 77.94 0h-.1c-26 .18-46.05 8.94-59.49 26C6.38 41.24.21 62.41 0 88.94v.12c.21 26.53 6.38 47.7 18.35 62.91 13.44 17.09 33.46 25.85 59.49 26h.1c23.14-.16 39.45-6.22 52.89-19.64 17.58-17.57 17-39.58 11.25-53.1-4.15-9.66-12.08-17.53-22.92-22.73m-39.95 37.56c-9.68.55-19.73-3.8-20.23-13.1-.37-6.9 4.91-14.6 20.83-15.52 1.82-.1 3.61-.15 5.36-.15a76 76 0 0 1 16.11 1.63c-1.84 22.91-12.59 26.62-22.07 27.14" style="fill:url(#a)"/></svg>