<svg xmlns="http://www.w3.org/2000/svg" viewBox="-35 -35 700 700"><path fill="#fff" d="M0 315v315h630V0H0v315zm508-25c16 4 28 11 39 23 6 6 15 17 15 20 0 1-27 19-44 29 0 1-3-2-5-6-8-12-17-17-30-18-19-1-31 9-31 26 0 5 1 7 3 11 4 9 12 14 36 25 45 19 64 32 76 50 14 21 17 53 8 77-10 26-35 44-70 50-11 2-36 2-48 0-25-5-49-17-64-34-6-6-17-23-17-24l6-4 24-13 18-11 4 6c5 8 16 19 23 23 21 10 48 9 62-3 6-6 8-11 8-19s-1-11-5-16c-5-7-15-13-43-25-33-14-47-23-59-37-8-8-15-21-18-31-2-9-3-32-1-41 7-31 31-53 65-59 11-3 37-2 48 1zm-148 26v26h-82v233h-58V342h-82v-25l1-26 110-1h111v26z"/></svg>