<svg xmlns="http://www.w3.org/2000/svg" viewBox="0 0 198.0183 146.65193"><g style="fill:#fff;fill-opacity:1;fill-rule:nonzero;image-rendering:auto"><path d="M127.24725 111.60641c-2.88836-.0145-5.76656-.6024-8.47973-1.78467-6.11167-2.66259-11.49342-7.69116-15.87156-14.494798 1.24856-2.219307 2.3738-4.517338 3.37843-6.853465 4.40506-10.243222 6.50003-21.459724 6.6607-32.59332-.0233-.220825-.0416-.442436-.0552-.664833l-.0121-.571316c-.01-4.365422-.67459-8.789784-2.17667-12.908841-1.73043-4.745776-4.4887-9.495481-8.86498-11.347741-.79519-.335952-1.63162-.477013-2.464161-.457367-5.504872-10.288802-5.679939-20.1485266 0-29.53713169.10115 0 .20619.00039293.30734.001179C106.37048.46797661 113.00939 2.5359531 118.6905 6.1477409c15.46928 9.8349701 23.18193 29.0007861 23.35194 47.8180741.002.220826-.00039.441258-.007.66169h.0868c-.0226 19.886801-4.80489 40.053612-14.87495 56.978905zm-34.299625 31.21585c-14.447871 5.94246-31.22819 5.62359-45.54931-1.02501-16.475714-7.64755-29.064949-22.51198-36.818455-39.47898C-2.6824097 73.29666-2.9858585 38.603143 9.5917057 9.1367387 19.037523 12.915521 27.43683 6.8970531 27.43683 6.8970531s-.01945 9.2605109 8.94785 13.9049119c-9.200724 21.556385-8.978973 47.166601.241203 68.172888C41.064794 99.082122 47.845708 108.49391 57.24484 113.8165c3.354732 1.8996 7.040998 3.12602 10.833017 3.58618.01404.0219.02808.0439.04214.0658 6.696522 10.44898 15.132208 19.1568 24.827633 25.35378z" style="fill:#fff;fill-opacity:1;fill-rule:nonzero" transform="translate(-.389792 -.392927)"/><path d="M127.24298 111.61346c-2.88693-.0151-5.76363-.60296-8.47546-1.78465-6.11266-2.66302-11.49516-7.69279-15.87368-14.498094 1.24941-2.220476 2.37535-4.519788 3.38055-6.857239 1.32817-3.088408 2.44626-6.264833 3.36439-9.500982 2.12803-7.497839 30.38184 2.018075 26.0717 14.370923-2.22386 6.372982-5.03943 12.509222-8.4675 18.270042zm-34.302088 31.21157c-14.446351 5.93959-31.223682 5.61979-45.542576-1.02778-16.475715-7.64755.447392-33.30334 9.846524-27.98075 3.353286 1.89878 7.037819 3.12496 10.828112 3.58558.01567.0245.03135.049.04704.0735 6.694972 10.44656 15.128303 19.15278 24.8209 25.34948z" style="opacity:.3;fill:#fff;fill-opacity:1;fill-rule:nonzero" transform="translate(-.389792 -.392927)"/><path d="M56.762435 54.627505c-.0066-.220432-.0093-.440865-.007-.66169.170009-18.817289 7.882666-37.983104 23.351942-47.8180743C85.788484 2.5359528 92.427399.46797642 99.12856.39410609c.10115-.00078585.20619-.001179.307339-.001179V29.930059c-.832539-.01965-1.668968.121414-2.46416.457367-4.376276 1.85226-7.134548 6.601965-8.864984 11.347741-1.502072 4.119057-2.166936 8.543418-2.176662 12.908841l-.01206.571316c-.01362.222397-.0319.444008-.05524.664833.160672 11.133595 2.255636 22.350098 6.660701 32.59332 4.933377 11.471906 12.775196 22.025153 23.847186 26.848723 8.35263 3.63969 17.61171 2.78114 25.18236-1.5057 9.39914-5.32259 16.18005-14.734378 20.61896-24.841647 9.22018-21.006287 9.44193-46.616503.24121-68.172888 8.9673-4.644401 8.94785-13.9049119 8.94785-13.9049119s8.3993 6.0184679 17.84512 2.2396856c12.57756 29.4664043 12.27412 64.1599213-.98815 93.1815313-7.75351 16.967-20.34275 31.83144-36.81846 39.47898-14.66669 6.80904-31.9127 6.97917-46.59106.58389-13.190311-5.74892-23.918394-16.10648-31.636886-28.1501-11.178588-17.442828-16.472213-38.678191-16.495945-59.603535Z" style="fill:#fff;fill-opacity:1;fill-rule:nonzero" transform="translate(-.389792 -.392927)"/></g></svg>