<svg xmlns="http://www.w3.org/2000/svg" viewBox="0 0 16 10.13"><path fill="#fff" d="M16 .17c0 .06-.02.11-.05.16-.04.04-.08.07-.12.07a1.5 1.5 0 00-.86.34c-.23.19-.46.56-.7 1.1l-3.62 8.18c-.03.07-.1.11-.2.11a.22.22 0 01-.2-.11L8.2 5.76l-2.34 4.26a.22.22 0 01-.2.11c-.1 0-.17-.04-.2-.11L1.88 1.84c-.22-.51-.45-.87-.7-1.07C.94.57.59.45.16.4.12.4.08.38.06.34A.2.2 0 010 .2C0 .07.04 0 .11 0c.32 0 .65.01 1 .04a10 10 0 001.94 0C3.46.01 3.83 0 4.15 0c.07 0 .1.07.1.2s-.02.2-.06.2c-.32.02-.57.1-.75.24a.65.65 0 00-.28.54c0 .12.04.26.12.43l2.94 6.66L7.9 5.1 6.34 1.84A4.25 4.25 0 005.64.7 1.39 1.39 0 004.84.4c-.04 0-.07-.02-.1-.06A.22.22 0 014.7.2c0-.13.03-.2.1-.2.31 0 .6.01.87.04a7.16 7.16 0 001.72 0c.33-.03.65-.04.97-.04.08 0 .12.07.12.2s-.03.2-.07.2c-.64.04-.96.22-.96.54 0 .14.07.36.22.66L8.7 3.7l1.03-1.92c.14-.27.21-.5.21-.68 0-.44-.31-.67-.95-.7-.06 0-.09-.07-.09-.2 0-.05.02-.1.05-.14.03-.04.05-.06.08-.06.23 0 .51.01.84.04a8.76 8.76 0 001.43 0c.36-.02.67-.04.9-.04.06 0 .1.06.1.17 0 .15-.06.23-.16.23-.37.04-.67.14-.9.3s-.5.55-.84 1.14L9.02 4.37l1.85 3.77 2.74-6.36c.1-.23.14-.45.14-.64 0-.47-.32-.71-.95-.74-.06 0-.09-.07-.09-.2s.04-.2.13-.2c.23 0 .5.01.82.04a7.6 7.6 0 001.47 0c.29-.03.54-.04.77-.04.07 0 .1.06.1.17z"/></svg>
